SplineFontDB: 3.0
FontName: Catastrophe
FullName: Catastrophe
FamilyName: Catastrophe
Weight: Regular
Copyright: Copyright (c) 2016, kelvin,,,
UComments: "2016-3-31: Created with FontForge (http://fontforge.org)"
Version: 001.000
ItalicAngle: 0
UnderlinePosition: -100
UnderlineWidth: 50
Ascent: 800
Descent: 200
InvalidEm: 0
LayerCount: 2
Layer: 0 0 "Back" 1
Layer: 1 0 "Fore" 0
XUID: [1021 629 -1283197947 14224290]
StyleMap: 0x0000
FSType: 0
OS2Version: 0
OS2_WeightWidthSlopeOnly: 0
OS2_UseTypoMetrics: 1
CreationTime: 1459445766
ModificationTime: 1460218908
OS2TypoAscent: 0
OS2TypoAOffset: 1
OS2TypoDescent: 0
OS2TypoDOffset: 1
OS2TypoLinegap: 90
OS2WinAscent: 0
OS2WinAOffset: 1
OS2WinDescent: 0
OS2WinDOffset: 1
HheadAscent: 0
HheadAOffset: 1
HheadDescent: 0
HheadDOffset: 1
MarkAttachClasses: 1
DEI: 91125
Encoding: ISO8859-1
UnicodeInterp: none
NameList: AGL For New Fonts
DisplaySize: -128
AntiAlias: 1
FitToEm: 0
WinInfo: 28 14 7
BeginPrivate: 0
EndPrivate
Grid
-1000 650 m 0
 2000 650 l 1024
-1000 -210 m 0
 2000 -210 l 1024
-1000 680 m 0
 2000 680 l 1024
-1000 450 m 0
 2000 450 l 1024
EndSplineSet
BeginChars: 256 37

StartChar: n
Encoding: 110 110 0
Width: 575
VWidth: 0
Flags: HMW
LayerCount: 2
Fore
SplineSet
485 110 m 25
 497 45 l 25
 565 20 l 25
 565 0 l 25
 330 0 l 25
 330 20 l 25
 388 45 l 25
 400 110 l 25
 400 260 l 2
 400 357 368 387 302 387 c 3
 250 387 206 353 185 301 c 5
 180 336 l 1
 204 404 254 460 344 460 c 3
 437 460 485 417 485 270 c 2
 485 110 l 25
30 445 m 1
 195 455 l 25
 180 336 l 1
 185 301 l 5
 185 110 l 1
 197 45 l 25
 255 20 l 25
 255 0 l 25
 20 0 l 25
 20 20 l 25
 88 45 l 25
 100 110 l 25
 100 330 l 25
 85 400 l 1
 30 425 l 25
 30 445 l 1
EndSplineSet
Validated: 5
EndChar

StartChar: e
Encoding: 101 101 1
Width: 451
VWidth: 0
Flags: HMW
LayerCount: 2
Back
SplineSet
243 -10 m 3
 90 -10 35 83 35 220 c 3
 35 357 100 460 237 460 c 3
 390 460 445 367 445 230 c 3
 445 93 380 -10 243 -10 c 3
EndSplineSet
Fore
SplineSet
397 91 m 1
 411 78 l 1
 372 21 319 -10 243 -10 c 3
 106 -10 40 83 40 220 c 3
 40 357 110 460 237 460 c 3
 351 460 405 389 405 287 c 1
 403 258 l 1
 134 258 l 1
 134 293 l 1
 242 293 l 1
 312 303 l 1
 312 374 298 417 230 417 c 3
 161 417 135 343 135 279 c 3
 135 129 182 54 276 54 c 3
 314 54 369 65 397 91 c 1
EndSplineSet
Validated: 5
EndChar

StartChar: o
Encoding: 111 111 3
Width: 520
VWidth: 0
Flags: HMW
LayerCount: 2
Fore
SplineSet
250 415 m 3
 171 415 140 343 140 232 c 3
 140 111 178 35 270 35 c 3
 349 35 380 107 380 218 c 3
 380 339 342 415 250 415 c 3
263 -10 m 3
 115 -10 40 83 40 220 c 3
 40 357 125 460 257 460 c 3
 405 460 480 367 480 230 c 3
 480 93 395 -10 263 -10 c 3
EndSplineSet
Validated: 1
EndChar

StartChar: p
Encoding: 112 112 4
Width: 525
VWidth: 0
Flags: HMW
LayerCount: 2
Fore
SplineSet
322 460 m 3
 420 460 485 384 485 245 c 3
 485 108 404 -5 263 -5 c 3
 218 -5 192 1 165 11 c 9
 170 55 l 17
 193 45 218 40 255 40 c 3
 333 40 395 83 395 223 c 3
 395 335 351 387 280 387 c 3
 234 387 191 353 170 301 c 1
 165 336 l 1
 189 404 235 460 322 460 c 3
180 455 m 25
 165 336 l 1
 170 301 l 1
 170 55 l 1
 165 11 l 1
 170 -95 l 1
 185 -165 l 1
 255 -190 l 25
 255 -210 l 25
 15 -210 l 25
 15 -190 l 25
 70 -165 l 1
 85 -95 l 25
 85 330 l 1
 70 400 l 1
 15 425 l 25
 15 445 l 1
 180 455 l 25
EndSplineSet
Validated: 5
EndChar

StartChar: i
Encoding: 105 105 6
Width: 275
VWidth: 0
Flags: HMW
LayerCount: 2
Fore
SplineSet
67 617 m 3
 67 654 93 680 130 680 c 3
 167 680 193 654 193 617 c 3
 193 580 167 554 130 554 c 3
 93 554 67 580 67 617 c 3
195 455 m 29
 185 335 l 5
 185 115 l 5
 200 45 l 29
 260 20 l 29
 260 0 l 29
 20 0 l 29
 20 20 l 29
 85 45 l 29
 100 115 l 29
 100 330 l 29
 85 400 l 5
 30 425 l 29
 30 445 l 5
 195 455 l 29
EndSplineSet
Validated: 1
EndChar

StartChar: d
Encoding: 100 100 7
Width: 535
VWidth: 0
Flags: HMW
LayerCount: 2
Fore
SplineSet
130 227 m 3
 130 115 179 58 250 58 c 3
 307 58 334 86 360 119 c 1
 365 84 l 1
 341 36 303 -10 208 -10 c 3
 110 -10 40 66 40 205 c 3
 40 342 116 455 252 455 c 3
 302 455 338 444 365 429 c 9
 360 380 l 17
 337 399 307 410 270 410 c 3
 192 410 130 367 130 227 c 3
445 560 m 9
 445 130 l 1
 460 60 l 1
 525 45 l 25
 525 25 l 1
 357 -10 l 25
 365 84 l 1
 360 119 l 1
 360 380 l 1
 365 429 l 1
 360 555 l 1
 345 625 l 1
 290 640 l 25
 290 660 l 1
 455 680 l 1
 445 560 l 9
EndSplineSet
Validated: 5
EndChar

StartChar: t
Encoding: 116 116 8
Width: 360
VWidth: 0
Flags: HMW
LayerCount: 2
Fore
SplineSet
180 555 m 5
 180 450 l 5
 323 450 l 5
 323 400 l 5
 180 400 l 5
 180 173 l 6
 180 87 197 57 240 57 c 7
 267 57 302 64 316 73 c 5
 330 60 l 5
 311 25 256 -10 200 -10 c 7
 113 -10 95 46 95 133 c 6
 95 400 l 5
 10 400 l 5
 10 415 l 5
 165 555 l 5
 180 555 l 5
EndSplineSet
Validated: 1
EndChar

StartChar: l
Encoding: 108 108 9
Width: 270
VWidth: 0
Flags: HMW
LayerCount: 2
Fore
SplineSet
95 555 m 29
 80 625 l 5
 15 640 l 29
 15 660 l 5
 190 680 l 5
 180 560 l 5
 180 115 l 1
 195 45 l 25
 255 20 l 25
 255 0 l 25
 15 0 l 25
 15 20 l 25
 80 45 l 25
 95 115 l 1
 95 555 l 29
EndSplineSet
Validated: 1
EndChar

StartChar: c
Encoding: 99 99 10
Width: 450
VWidth: 0
Flags: HMW
LayerCount: 2
Fore
SplineSet
324 402 m 1
 304 412 291 417 254 417 c 3
 164.977539062 417 135 330 135 258 c 3
 135 111.330078125 190.994140625 55 284 55 c 3
 322 55 373 67 401 93 c 1
 415 80 l 1
 376 23 319 -10 243 -10 c 3
 107 -10 40 83 40 220 c 3
 40 357 127 460 253 460 c 3
 329 460 378 439 395 425 c 1
 397 312 l 1
 347 308 l 1
 324 402 l 1
EndSplineSet
Validated: 1
EndChar

StartChar: a
Encoding: 97 97 11
Width: 460
VWidth: 0
Flags: HMW
LayerCount: 2
Fore
SplineSet
221 460 m 3
 325 460 375 419 375 290 c 2
 375 130 l 17
 390 60 l 1
 455 45 l 25
 455 25 l 1
 287 -10 l 25
 295 85 l 1
 290 160 l 9
 290 275 l 2
 290 358 254 392 189 392 c 3
 136 392 106 371 77 343 c 1
 61 356 l 1
 83 407 135 460 221 460 c 3
290 248 m 9
 290 213 l 17
 155 213 130 185.008789062 130 127 c 3
 130 78.98828125 153 54 197 54 c 3
 237.012695312 54 290 83 290 160 c 1
 295 85 l 1
 275 36 227.123046875 -10 162 -10 c 3
 78.9384765625 -10 35 35.7392578125 35 105 c 3
 35 189.758789062 97 248 290 248 c 9
EndSplineSet
Validated: 524293
EndChar

StartChar: b
Encoding: 98 98 12
Width: 520
VWidth: 0
Flags: HMW
LayerCount: 2
Fore
SplineSet
85 15 m 1
 85 555 l 1
 70 625 l 1
 15 640 l 25
 15 660 l 1
 180 680 l 1
 170 560 l 9
 165 351 l 1
 170 316 l 1
 170 110 l 1
 180 40 l 1
 195 35 206 32 224 32 c 3
 319.045898438 32 390 77 390 220 c 3
 390 335 356 387 280 387 c 3
 233.989257812 387 191 356 170 316 c 5
 165 351 l 1
 189 406 243.9765625 460 317 460 c 3
 420 460 480 384 480 242 c 3
 480 101.771484375 372 -10 223 -10 c 3
 165.44140625 -10 123 -1 85 15 c 1
EndSplineSet
Validated: 5
EndChar

StartChar: f
Encoding: 102 102 13
Width: 330
VWidth: 0
Flags: HMW
LayerCount: 2
Back
SplineSet
180 555 m 5
 180 450 l 5
 323 450 l 5
 323 400 l 5
 180 400 l 5
 180 173 l 6
 180 87 197 57 240 57 c 7
 267 57 302 64 316 73 c 5
 330 60 l 5
 311 25 256 -10 200 -10 c 7
 113 -10 95 46 95 133 c 6
 95 400 l 5
 10 400 l 5
 10 415 l 5
 165 555 l 5
 180 555 l 5
EndSplineSet
Fore
SplineSet
49 450 m 5
 180 450 l 1
 300 450 l 1
 300 400 l 1
 10 400 l 5
 10 415 l 5
 49 450 l 5
262 610 m 3
 199 610 172 593 172 561 c 3
 172 526 180 493 180 450 c 3
 180 115 l 1
 195 45 l 25
 275 20 l 25
 275 0 l 25
 20 0 l 25
 20 20 l 25
 80 45 l 25
 95 115 l 1
 95 460 l 3
 95 565 155 690 282 690 c 3
 313 690 330 686 350 678 c 9
 326 594 l 17
 310 601 287 610 262 610 c 3
EndSplineSet
Validated: 5
EndChar

StartChar: v
Encoding: 118 118 14
Width: 480
VWidth: 0
Flags: HMW
LayerCount: 2
Back
SplineSet
349 335 m 5
 364 405 l 29
 310 430 l 29
 310 450 l 29
 490 450 l 29
 490 430 l 29
 431 405 l 29
 396 335 l 5
 272 -10 l 21
 209 -10 l 5
 82 335 l 5
 47 405 l 5
 -3 430 l 29
 -3 450 l 29
 210 450 l 29
 210 430 l 29
 160 405 l 29
 175 335 l 29
 266 78 l 29
 349 335 l 5
EndSplineSet
Fore
SplineSet
349 335 m 1
 359 405 l 25
 305 430 l 25
 305 450 l 25
 490 450 l 25
 490 430 l 25
 436 405 l 25
 396 335 l 1
 272 -10 l 17
 209 -10 l 1
 82 335 l 1
 47 405 l 1
 -3 430 l 25
 -3 450 l 25
 210 450 l 25
 210 430 l 25
 160 405 l 25
 175 335 l 25
 264 83 l 25
 349 335 l 1
EndSplineSet
Validated: 1
EndChar

StartChar: r
Encoding: 114 114 15
Width: 390
VWidth: 0
Flags: HMW
LayerCount: 2
Back
SplineSet
485 110 m 29
 497 45 l 29
 565 20 l 29
 565 0 l 29
 330 0 l 29
 330 20 l 29
 388 45 l 29
 400 110 l 29
 400 260 l 6
 400 357 368 387 302 387 c 7
 250 387 206 353 185 301 c 5
 180 336 l 5
 204 404 254 460 344 460 c 7
 437 460 485 417 485 270 c 6
 485 110 l 29
30 445 m 5
 195 455 l 29
 180 336 l 5
 185 301 l 5
 185 110 l 5
 197 45 l 29
 255 20 l 29
 255 0 l 29
 20 0 l 29
 20 20 l 29
 88 45 l 29
 100 110 l 29
 100 330 l 29
 85 400 l 5
 30 425 l 29
 30 445 l 5
EndSplineSet
Fore
SplineSet
100 110 m 9
 100 330 l 25
 85 400 l 1
 30 425 l 25
 30 445 l 1
 195 455 l 25
 177 310 l 1
 180 275 l 1
 185 110 l 1
 197 45 l 25
 280 20 l 25
 280 0 l 25
 25 0 l 25
 25 20 l 25
 88 45 l 25
 100 110 l 9
327 460 m 3
 347 460 356 458 372 455 c 9
 360 355 l 17
 345 358 330 362 311 362 c 3
 237 362 204 338 180 275 c 1
 177 310 l 1
 200 376 253 460 327 460 c 3
EndSplineSet
Validated: 5
EndChar

StartChar: s
Encoding: 115 115 16
Width: 410
VWidth: 0
Flags: HMW
LayerCount: 2
Fore
SplineSet
276 95 m 3
 276 140 243 158 168 182 c 0
 93.875 205.719726562 40 251.682617188 40 329 c 3
 40 407 96 460 201 460 c 3
 288 460 321 439 338 425 c 1
 338 318 l 1
 291 315 l 1
 277 389 l 1
 257 407 242 418 193 418 c 3
 145 418 115 394 115 354 c 3
 115 315 159.58984375 288.39453125 230 266 c 0
 308.041992188 241.177734375 355 197 355 132 c 3
 355 32 298 -11 175 -11 c 3
 114.991210938 -11 75 5 42 24 c 1
 40 136 l 1
 87 139 l 1
 103 65 l 1
 127 45 156 34 193 34 c 3
 242.008789062 34 276 51 276 95 c 3
EndSplineSet
Validated: 524289
EndChar

StartChar: g
Encoding: 103 103 17
Width: 500
VWidth: 0
Flags: HMW
LayerCount: 2
Fore
SplineSet
460 515 m 1
 450 425 l 1
 362 430 l 1
 315 450 l 1
 380 470 l 1
 442 519 l 1
 460 515 l 1
141 172 m 9
 173 160 l 17
 158 143 148 128 148 113 c 3
 148 86 184.937527103 77 257 77 c 3
 388 77 465 55 465 -36 c 3
 465 -135 352 -220 225 -220 c 3
 123 -220 40 -191 40 -98 c 3
 40 -43 76 -5 131 23 c 9
 151 5 l 17
 116 -20 112 -36 112 -70 c 3
 112 -129 169 -165 251 -165 c 3
 330 -165 397 -138 397 -68 c 3
 397 -23 342 -5 240 -5 c 3
 115.963714986 -5 71 23 71 72 c 3
 71 99 106 144 141 172 c 9
233 419 m 3
 183 419 155 388 155 310 c 3
 155 225 188 191 247 191 c 3
 297 191 325 222 325 300 c 3
 325 386 292 419 233 419 c 3
242 150 m 3
 118 150 60 206 60 302 c 3
 60 398 126 460 238 460 c 3
 362 460 420 404 420 308 c 3
 420 212 354 150 242 150 c 3
EndSplineSet
Validated: 5
EndChar

StartChar: y
Encoding: 121 121 18
Width: 480
VWidth: 0
Flags: HMW
LayerCount: 2
Back
SplineSet
349 335 m 5
 359 405 l 29
 305 430 l 29
 305 450 l 29
 490 450 l 29
 490 430 l 29
 436 405 l 29
 396 335 l 5
 272 -10 l 21
 209 -10 l 5
 82 335 l 5
 47 405 l 5
 -3 430 l 29
 -3 450 l 29
 210 450 l 29
 210 430 l 29
 160 405 l 29
 175 335 l 29
 264 83 l 29
 349 335 l 5
EndSplineSet
Fore
SplineSet
86 -220 m 3
 55 -220 31 -216 11 -208 c 9
 35 -122 l 17
 59 -131 101 -143 132 -143 c 3
 173.030273438 -143 194.725796723 -120.480323489 211 -59 c 2
 220 -25 l 1
 81 335 l 1
 45 405 l 1
 -5 430 l 25
 -5 450 l 25
 208 450 l 25
 208 430 l 25
 158 405 l 25
 174 335 l 25
 266 88 l 1
 349 335 l 1
 359 405 l 25
 300 430 l 25
 300 450 l 25
 485 450 l 25
 485 430 l 25
 436 405 l 25
 396 335 l 1
 264 -35 l 18
 211.297868648 -182.725671214 161.026367188 -220 86 -220 c 3
EndSplineSet
Validated: 1
EndChar

StartChar: m
Encoding: 109 109 19
Width: 855
VWidth: 0
Flags: HMW
LayerCount: 2
Back
SplineSet
485 110 m 29
 497 45 l 29
 565 20 l 29
 565 0 l 29
 330 0 l 29
 330 20 l 29
 388 45 l 29
 400 110 l 29
 400 260 l 6
 400 357 368 387 302 387 c 7
 250 387 206 353 185 301 c 5
 180 336 l 5
 204 404 254 460 344 460 c 7
 437 460 485 417 485 270 c 6
 485 110 l 29
30 445 m 5
 195 455 l 29
 180 336 l 5
 185 301 l 5
 185 110 l 5
 197 45 l 29
 255 20 l 29
 255 0 l 29
 20 0 l 29
 20 20 l 29
 88 45 l 29
 100 110 l 29
 100 330 l 29
 85 400 l 5
 30 425 l 29
 30 445 l 5
EndSplineSet
Fore
SplineSet
765 110 m 25
 777 45 l 25
 845 20 l 25
 845 0 l 25
 610 0 l 25
 610 20 l 25
 668 45 l 25
 680 110 l 25
 680 260 l 2
 680 357 653 387 587 387 c 3
 535 387 496 353 474 299 c 5
 470 336 l 1
 494 404 539 460 629 460 c 3
 722 460 765 417 765 270 c 2
 765 110 l 25
475 110 m 25
 487 45 l 25
 545 20 l 25
 545 0 l 25
 320 0 l 25
 320 20 l 25
 378 45 l 25
 390 110 l 25
 390 260 l 2
 390 357 363 387 297 387 c 3
 245 387 206 353 185 301 c 5
 180 336 l 5
 204 404 249 460 339 460 c 3
 432 460 475 417 475 270 c 2
 475 110 l 25
30 445 m 1
 195 455 l 25
 180 336 l 5
 185 301 l 1
 185 110 l 1
 197 45 l 25
 255 20 l 25
 255 0 l 25
 20 0 l 25
 20 20 l 25
 88 45 l 25
 100 110 l 25
 100 330 l 25
 85 400 l 1
 30 425 l 25
 30 445 l 1
EndSplineSet
Validated: 5
EndChar

StartChar: I
Encoding: 73 73 20
Width: 310
VWidth: 0
Flags: HMW
LayerCount: 2
Back
SplineSet
205 455 m 25
 195 335 l 1
 195 115 l 1
 210 45 l 25
 270 20 l 25
 270 0 l 25
 30 0 l 25
 30 20 l 25
 95 45 l 25
 110 115 l 25
 110 330 l 25
 95 400 l 1
 40 425 l 25
 40 445 l 1
 205 455 l 25
EndSplineSet
Fore
SplineSet
110 525 m 21
 95 605 l 25
 25 630 l 25
 25 650 l 25
 285 650 l 25
 285 630 l 25
 215 605 l 25
 200 525 l 21
 200 125 l 5
 215 45 l 29
 290 20 l 29
 290 0 l 29
 20 0 l 29
 20 20 l 29
 95 45 l 29
 110 125 l 5
 110 525 l 21
EndSplineSet
Validated: 1
EndChar

StartChar: u
Encoding: 117 117 21
Width: 540
VWidth: 0
Flags: HMW
LayerCount: 2
Back
SplineSet
80 340 m 29
 68 405 l 29
 0 430 l 29
 0 450 l 29
 235 450 l 29
 235 430 l 29
 177 405 l 29
 165 340 l 29
 165 190 l 6
 165 93 197 63 263 63 c 7
 315 63 354 97 380 149 c 5
 385 114 l 5
 361 46 311 -10 221 -10 c 7
 128 -10 80 33 80 180 c 6
 80 340 l 29
535 5 m 5
 370 -5 l 29
 385 114 l 5
 380 149 l 5
 380 340 l 5
 368 405 l 29
 310 430 l 29
 310 450 l 29
 545 450 l 29
 545 430 l 29
 477 405 l 29
 465 340 l 29
 465 120 l 29
 480 50 l 5
 535 25 l 29
 535 5 l 5
EndSplineSet
Fore
SplineSet
365 105 m 1
 365 140 l 1
 360 335 l 1
 348 400 l 1
 285 425 l 25
 285 445 l 1
 460 453 l 25
 445 340 l 1
 445 125 l 1
 457 60 l 1
 525 45 l 25
 525 25 l 1
 357 -10 l 1
 365 105 l 1
175 454 m 25
 163 340 l 9
 163 190 l 2
 163 93 192 63 255 63 c 3
 311 63 340 98 365 140 c 1
 365 105 l 1
 332 43 303 -10 214 -10 c 3
 129 -10 80 33 80 180 c 2
 80 335 l 25
 68 400 l 1
 0 426 l 25
 0 446 l 1
 175 454 l 25
EndSplineSet
Validated: 5
EndChar

StartChar: h
Encoding: 104 104 22
Width: 569
VWidth: 0
Flags: HMW
LayerCount: 2
Back
SplineSet
175 680 m 1
 175 317 l 1037
EndSplineSet
Fore
SplineSet
334 460 m 3
 427 460 475 417 475 270 c 2
 475 110 l 25
 487 45 l 25
 555 20 l 25
 555 0 l 25
 320 0 l 25
 320 20 l 25
 378 45 l 25
 390 110 l 25
 390 260 l 2
 390 357 358 387 292 387 c 3
 245.989257812 387 196 356 175 316 c 1
 170 351 l 1
 194 406 252 460 334 460 c 3
175 316 m 1
 175 110 l 1
 187 45 l 25
 245 20 l 25
 245 0 l 25
 10 0 l 25
 10 20 l 25
 78 45 l 25
 90 110 l 1
 90 555 l 17
 75 625 l 1
 10 640 l 25
 10 660 l 1
 185 680 l 1
 175 560 l 1
 170 351 l 9
 175 316 l 1
EndSplineSet
Validated: 5
EndChar

StartChar: j
Encoding: 106 106 23
Width: 265
VWidth: 0
Flags: HMW
LayerCount: 2
Back
SplineSet
-2 -220 m 7
 -33 -220 -57 -216 -77 -208 c 13
 -53 -122 l 21
 -29 -131 13 -143 44 -143 c 7
 85.0302734375 -143 109.1328125 -119.793945312 128 -59 c 2
 137 -30 l 1
 -7 335 l 1
 -43 405 l 1
 -93 430 l 25
 -93 450 l 25
 120 450 l 25
 120 430 l 25
 70 405 l 25
 86 335 l 25
 180 83 l 1
 266 335 l 1
 281 405 l 25
 222 430 l 25
 222 450 l 25
 397 450 l 25
 397 430 l 25
 343 405 l 25
 308 335 l 1
 176 -35 l 18
 122.23828125 -182.34765625 73.0263671875 -220 -2 -220 c 7
EndSplineSet
Fore
SplineSet
26 -220 m 3
 -0 -220 -15 -216 -35 -210 c 9
 -14 -122 l 17
 12 -131 43 -137 69 -137 c 3
 94 -137 112 -124 112 -90 c 3
 112 -60 100 33 100 80 c 2
 100 330 l 1
 85 400 l 1
 30 425 l 25
 30 445 l 1
 195 455 l 25
 185 335 l 1
 185 40 l 2
 185 -153 109 -220 26 -220 c 3
67 617 m 3
 67 654 93 680 130 680 c 3
 167 680 193 654 193 617 c 3
 193 580 167 554 130 554 c 3
 93 554 67 580 67 617 c 3
EndSplineSet
Validated: 1
EndChar

StartChar: k
Encoding: 107 107 24
Width: 520
VWidth: 0
Flags: HMW
LayerCount: 2
Back
SplineSet
95 555 m 29
 80 625 l 5
 15 640 l 29
 15 660 l 5
 190 680 l 5
 180 560 l 5
 180 115 l 5
 195 45 l 29
 255 20 l 29
 255 0 l 29
 15 0 l 29
 15 20 l 29
 80 45 l 29
 95 115 l 5
 95 555 l 29
EndSplineSet
Fore
SplineSet
454 45 m 1
 520 20 l 25
 520 0 l 1
 365 0 l 25
 291 105 l 1
 205 215 l 25
 313 345 l 1
 340 400 l 25
 295 430 l 25
 295 450 l 25
 490 450 l 25
 490 430 l 25
 432 400 l 25
 366 345 l 1
 283 246 l 17
 454 45 l 1
95 555 m 25
 80 625 l 1
 15 640 l 25
 15 660 l 1
 190 680 l 1
 180 560 l 1
 180 115 l 1
 195 45 l 25
 255 20 l 25
 255 0 l 25
 15 0 l 25
 15 20 l 25
 80 45 l 25
 95 115 l 1
 95 555 l 25
EndSplineSet
Validated: 1
EndChar

StartChar: w
Encoding: 119 119 25
Width: 735
VWidth: 0
Flags: HMW
LayerCount: 2
Back
SplineSet
349 335 m 5
 359 405 l 29
 310 430 l 29
 310 450 l 29
 490 450 l 29
 490 430 l 29
 436 405 l 29
 396 335 l 5
 272 -10 l 21
 209 -10 l 5
 82 335 l 5
 47 405 l 5
 -3 430 l 29
 -3 450 l 29
 210 450 l 29
 210 430 l 29
 160 405 l 29
 175 335 l 29
 264 83 l 29
 349 335 l 5
EndSplineSet
Fore
SplineSet
416 430 m 1
 529 83 l 1
 603 335 l 1
 614 405 l 25
 560 430 l 25
 560 450 l 25
 745 450 l 25
 745 430 l 25
 691 405 l 25
 650 335 l 1
 537 -10 l 17
 474 -10 l 1
 369 305 l 1
 267 -10 l 1
 204 -10 l 1
 84 335 l 1
 50 405 l 1
 0 430 l 25
 0 450 l 25
 213 450 l 25
 213 430 l 25
 163 405 l 25
 177 335 l 25
 254 83 l 1
 365 430 l 1
 416 430 l 1
EndSplineSet
Validated: 1
EndChar

StartChar: x
Encoding: 120 120 26
Width: 460
VWidth: 0
Flags: HMW
LayerCount: 2
Back
SplineSet
340 335 m 5
 350 405 l 29
 305 430 l 29
 305 450 l 29
 480 450 l 29
 480 430 l 29
 430 405 l 29
 390 335 l 5
 262 -10 l 21
 199 -10 l 5
 70 335 l 5
 35 405 l 5
 -15 430 l 29
 -15 450 l 29
 198 450 l 29
 198 430 l 29
 148 405 l 29
 163 335 l 29
 256 78 l 29
 340 335 l 5
EndSplineSet
Fore
SplineSet
282 345 m 1
 309 405 l 25
 262 430 l 25
 262 450 l 25
 447 450 l 25
 447 430 l 25
 385 405 l 25
 331 345 l 9
 247 220 l 25
 211 235 l 25
 282 345 l 1
155 105 m 1
 126 45 l 25
 173 20 l 25
 173 0 l 25
 -12 0 l 25
 -12 20 l 25
 50 45 l 25
 106 105 l 9
 191 230 l 25
 232 215 l 25
 155 105 l 1
206 335 m 17
 253 256 l 1
 347 115 l 1
 405 45 l 1
 460 20 l 25
 460 0 l 25
 242 0 l 25
 242 20 l 25
 282 45 l 1
 249 115 l 17
 192 207 l 1
 108 335 l 1
 50 405 l 1
 -5 430 l 25
 -5 450 l 25
 213 450 l 25
 213 430 l 25
 173 405 l 25
 206 335 l 17
EndSplineSet
Validated: 5
EndChar

StartChar: q
Encoding: 113 113 27
Width: 520
VWidth: 0
Flags: HMW
LayerCount: 2
Back
SplineSet
130 227 m 7
 130 115 179 58 250 58 c 7
 307 58 334 86 360 119 c 5
 365 84 l 5
 341 36 303 -10 208 -10 c 7
 110 -10 40 66 40 205 c 7
 40 342 116 455 252 455 c 7
 302 455 333 445 360 430 c 13
 360 380 l 21
 337 399 307 410 270 410 c 7
 192 410 130 367 130 227 c 7
445 560 m 13
 445 130 l 5
 460 60 l 5
 525 45 l 29
 525 25 l 5
 350 -10 l 29
 365 84 l 5
 360 119 l 5
 360 555 l 13
 345 625 l 5
 290 640 l 29
 290 660 l 5
 455 680 l 5
 445 560 l 13
EndSplineSet
Fore
SplineSet
525 -210 m 17
 285 -210 l 25
 285 -190 l 25
 345 -165 l 1
 360 -95 l 25
 365 86 l 1
 360 121 l 1
 360 335 l 1
 350 405 l 1
 335 413 314 418 291 418 c 3
 201 418 130 373 130 230 c 3
 130 115 174 63 250 63 c 3
 296 63 334 83 360 121 c 1
 365 86 l 1
 341 33 286 -10 213 -10 c 3
 110 -10 40 66 40 208 c 3
 40 348 148 460 297 460 c 3
 355 460 407 451 445 430 c 1
 445 -95 l 1
 460 -165 l 1
 525 -190 l 1
 525 -210 l 17
EndSplineSet
Validated: 5
EndChar

StartChar: z
Encoding: 122 122 28
Width: 450
VWidth: 0
Flags: HMW
LayerCount: 2
Fore
SplineSet
60 455 m 1
 160 450 l 1
 400 450 l 1
 400 430 l 1
 153 37 l 1
 277 37 l 1
 347 52 l 1
 367 130 l 1
 410 125 l 5
 403 0 l 1
 40 0 l 1
 40 20 l 1
 287 413 l 1
 186 413 l 1
 116 398 l 1
 96 319 l 1
 53 323 l 1
 60 455 l 1
EndSplineSet
Validated: 1
EndChar

StartChar: hyphen
Encoding: 45 45 29
Width: 320
VWidth: 0
Flags: HMW
LayerCount: 2
Fore
SplineSet
50 265 m 1
 270 265 l 1
 270 210 l 1
 50 210 l 1
 50 265 l 1
EndSplineSet
Validated: 1
EndChar

StartChar: period
Encoding: 46 46 30
Width: 260
VWidth: 0
Flags: HMW
LayerCount: 2
Fore
SplineSet
62 58 m 3
 62 98 90 126 130 126 c 3
 170 126 198 98 198 58 c 3
 198 18 170 -10 130 -10 c 3
 90 -10 62 18 62 58 c 3
EndSplineSet
Validated: 1
EndChar

StartChar: comma
Encoding: 44 44 31
Width: 260
VWidth: 0
Flags: HMW
LayerCount: 2
Fore
SplineSet
62 59 m 3
 62 96 88 126 128 126 c 3
 172 126 198 93 198 42 c 3
 198 -44 149 -104 91 -139 c 9
 69 -106 l 1
 102 -85 139 -52 135 0 c 1
 128 -2 124 -3 117 -3 c 3
 83 -3 62 22 62 59 c 3
EndSplineSet
Validated: 33
EndChar

StartChar: exclam
Encoding: 33 33 32
Width: 260
VWidth: 0
Flags: HMW
LayerCount: 2
Fore
SplineSet
183 655 m 1
 155 209 l 1
 105 209 l 1
 70 640 l 1
 183 655 l 1
EndSplineSet
Refer: 30 46 N 1 0 0 1 0 0 2
Validated: 1
EndChar

StartChar: Y
Encoding: 89 89 33
Width: 480
VWidth: 0
Flags: HMW
LayerCount: 2
Fore
SplineSet
285 318 m 17
 285 125 l 1
 300 45 l 25
 375 20 l 25
 375 0 l 25
 105 0 l 25
 105 20 l 25
 180 45 l 25
 195 125 l 1
 195 318 l 17
 285 318 l 17
355 535 m 1
 375 605 l 25
 311 630 l 25
 311 650 l 25
 520 650 l 25
 520 630 l 25
 456 605 l 25
 406 535 l 1
 269 259 l 1
 206 259 l 1
 62 535 l 1
 15 605 l 1
 -45 630 l 25
 -45 650 l 25
 200 650 l 25
 200 630 l 25
 140 605 l 25
 167 535 l 1
 265 342 l 1
 355 535 l 1
EndSplineSet
Validated: 5
EndChar

StartChar: O
Encoding: 79 79 36
Width: 720
VWidth: 0
Flags: MW
LayerCount: 2
Back
SplineSet
250 415 m 3
 171 415 140 343 140 232 c 3
 140 111 178 35 270 35 c 3
 349 35 380 107 380 218 c 3
 380 339 342 415 250 415 c 3
263 -10 m 3
 115 -10 40 83 40 220 c 3
 40 357 125 460 257 460 c 3
 405 460 480 367 480 230 c 3
 480 93 395 -10 263 -10 c 3
EndSplineSet
Fore
SplineSet
345 613 m 3
 215 613 155 497 155 332 c 3
 155 152 225 37 375 37 c 3
 505 37 565 153 565 318 c 3
 565 498 495 613 345 613 c 3
365 -10 m 3
 153 -10 50 120 50 320 c 3
 50 520 165 660 355 660 c 3
 567 660 670 530 670 330 c 3
 670 130 555 -10 365 -10 c 3
EndSplineSet
Validated: 524289
EndChar
